<?xml version="1.0" encoding="utf-8"?>
<!-- Generator: Adobe Illustrator 27.4.0, SVG Export Plug-In . SVG Version: 6.00 Build 0)  -->
<svg version="1.1" id="Layer_1" xmlns="http://www.w3.org/2000/svg" xmlns:xlink="http://www.w3.org/1999/xlink" x="0px" y="0px"
	 viewBox="0 0 516 516" style="enable-background:new 0 0 516 516;" xml:space="preserve">
<style type="text/css">
	.st0{fill:#151515;}
	.st1{fill:#FFFFFF;}
</style>
<circle class="st0" cx="258" cy="258" r="257.8"/>
<g>
	<path class="st1" d="M151.9,115.8c-13.8,23.7-24.1,47.3-30.9,70.9c-6.8,23.5-10.2,47.3-10.2,71.2c0,23.8,3.4,47.5,10.2,71.1
		c6.8,23.6,17.1,47.3,30.9,71.2h-24.9c-15.7-24.7-27.4-48.8-35.1-72.3c-7.7-23.4-11.5-46.8-11.5-70.1c0-23.2,3.8-46.5,11.5-70
		c7.7-23.5,19.4-47.5,35.1-72H151.9z"/>
	<path class="st1" d="M311.4,338.7c-11.2,4.6-22.2,8-32.9,10.3c-10.7,2.3-21.5,3.4-32.6,3.4c-23.8,0-42-6-54.4-17.9
		c-12.4-11.9-18.6-29.3-18.6-52.2c0-16.7,3.2-33,9.6-49.1s15.3-29.9,26.6-41.5c8.9-9.2,18.7-16.2,29.4-21
		c10.7-4.8,21.9-7.2,33.6-7.2c19.9,0,35.8,6.1,47.7,18.4c11.9,12.2,17.9,28.6,17.9,49c0,3.6-0.3,8.2-0.8,13.5
		c-0.5,5.4-1.4,12.3-2.7,20.6H204.9c-0.6,3.4-1.1,6.5-1.4,9.3c-0.3,2.8-0.5,5.2-0.5,7.4c0,14.9,4.1,26.2,12.3,34
		c8.2,7.8,20.2,11.7,35.9,11.7c9.4,0,19.7-1.5,30.9-4.6c11.2-3,22.8-7.6,35-13.5L311.4,338.7z M307.7,242.1c0.6-2.9,1.1-5.3,1.3-7.1
		c0.2-1.9,0.3-3.7,0.3-5.4c0-12.8-3.5-22.8-10.4-30c-7-7.2-16.6-10.7-29-10.7c-13.1,0-25.2,4.8-36,14.4
		c-10.9,9.6-18.6,22.6-23.3,38.8H307.7z"/>
	<path class="st1" d="M364.1,115.8h24.9c15.7,24.5,27.4,48.5,35.1,72c7.7,23.5,11.5,46.8,11.5,70c0,23.4-3.8,46.8-11.5,70.3
		c-7.7,23.5-19.4,47.5-35.1,72h-24.9c13.8-24.1,24.1-48,30.9-71.6c6.8-23.6,10.2-47.2,10.2-70.8c0-23.7-3.4-47.3-10.2-70.9
		C388.3,163.3,377.9,139.6,364.1,115.8z"/>
</g>
</svg>
